<svg width="256" height="256" viewBox="0 0 256 256" fill="none" xmlns="http://www.w3.org/2000/svg">
  <rect width="256" height="256" rx="56" fill="url(#bg)"/>
  <rect x="40" y="52" width="176" height="152" rx="36" fill="white" fill-opacity="0.94"/>
  <path d="M80 92C80 81.5066 88.5066 73 99 73H157C167.493 73 176 81.5066 176 92V99H80V92Z" fill="#0F172A"/>
  <path d="M84 112H128V160H84V112Z" fill="#E2E8F0"/>
  <path d="M136 112H172V126H136V112Z" fill="#0F766E"/>
  <path d="M136 134H172V148H136V134Z" fill="#14B8A6"/>
  <path d="M136 156H160C166.627 156 172 161.373 172 168V168C172 174.627 166.627 180 160 180H136V156Z" fill="#FDBA74"/>
  <path d="M96 126H116" stroke="#94A3B8" stroke-width="10" stroke-linecap="round"/>
  <path d="M96 146H116" stroke="#94A3B8" stroke-width="10" stroke-linecap="round"/>
  <path d="M96 166H108" stroke="#94A3B8" stroke-width="10" stroke-linecap="round"/>
  <defs>
    <linearGradient id="bg" x1="28" y1="24" x2="224" y2="232" gradientUnits="userSpaceOnUse">
      <stop stop-color="#0F172A"/>
      <stop offset="0.55" stop-color="#134E4A"/>
      <stop offset="1" stop-color="#0F766E"/>
    </linearGradient>
  </defs>
</svg>
